<svg xmlns="http://www.w3.org/2000/svg" viewBox="0 0 32 32" fill="none">
  <defs>
    <linearGradient id="grad1" x1="0%" y1="0%" x2="100%" y2="100%">
      <stop offset="0%" style="stop-color:#2563eb;stop-opacity:1" />
      <stop offset="100%" style="stop-color:#1e40af;stop-opacity:1" />
    </linearGradient>
  </defs>
  
  <!-- Background circle -->
  <circle cx="16" cy="16" r="15" fill="url(#grad1)" stroke="#1e40af" stroke-width="2"/>
  
  <!-- Main gear -->
  <g fill="#ffffff">
    <!-- Gear teeth -->
    <path d="M16 4 L18 6 L14 6 Z"/>
    <path d="M28 16 L26 18 L26 14 Z"/>
    <path d="M16 28 L14 26 L18 26 Z"/>
    <path d="M4 16 L6 14 L6 18 Z"/>
    <path d="M25.5 8.5 L24 10 L22.5 8.5 Z"/>
    <path d="M23.5 25.5 L22 24 L23.5 22.5 Z"/>
    <path d="M8.5 23.5 L10 22 L8.5 20.5 Z"/>
    <path d="M6.5 8.5 L8 10 L6.5 11.5 Z"/>
    
    <!-- Main gear body -->
    <circle cx="16" cy="16" r="8" fill="#ffffff"/>
    <circle cx="16" cy="16" r="4" fill="url(#grad1)"/>
    
    <!-- Center hole -->
    <circle cx="16" cy="16" r="1.5" fill="#ffffff"/>
  </g>
  
  <!-- Smaller automation symbols -->
  <g fill="#ffffff" opacity="0.8">
    <!-- Lightning bolt (automation speed) -->
    <path d="M21 11 L19 13 L20 13 L18 16 L20 14 L19 14 L21 11 Z" fill="#fbbf24"/>
    
    <!-- Binary dots (digital automation) -->
    <circle cx="11" cy="11" r="0.8" fill="#10b981"/>
    <circle cx="13" cy="9" r="0.6" fill="#10b981"/>
  </g>
</svg> 